<svg xmlns="http://www.w3.org/2000/svg" width="214" height="106" fill="none">
  <path fill="#FFF06E" stroke="#FF7A64" stroke-linecap="round" stroke-linejoin="round" stroke-miterlimit="10" stroke-width="3.685" d="M2.202 4.364c-.73 19.528.55 42.686 3.379 62.022l137.544-2.719c1.599-8.748 2.158-17.649 2.713-26.525L148.038 2c-18.943 3.944-38.537 1.214-57.878.64-27.05-.801-60.933 3.129-87.958 1.724z"/>
  <path fill="#FF7A64" d="M75.619 14.697c-3.04-1.808-6.506-3.446-9.985-2.813-4.425.805-7.398 5.006-9.117 9.162a37.8 37.8 0 0 0-2.86 14.177c-.041 6.763 2.139 14.05 7.69 17.915 2.7 1.88 5.969 2.789 9.232 3.208 7.896 1.013 16.326-.864 22.42-5.984 6.097-5.12 9.449-13.656 7.501-21.374-1.63-6.455-6.734-11.736-12.842-14.385-6.108-2.65-13.094-2.847-19.597-1.417"/>
  <path stroke="#FF7A64" stroke-linecap="round" stroke-linejoin="round" stroke-miterlimit="10" stroke-width="3.685" d="M75.619 14.697c-3.04-1.808-6.506-3.446-9.985-2.813-4.425.805-7.398 5.006-9.117 9.162a37.8 37.8 0 0 0-2.86 14.177c-.041 6.763 2.139 14.05 7.69 17.915 2.7 1.88 5.969 2.789 9.232 3.208 7.896 1.013 16.326-.864 22.42-5.984 6.097-5.12 9.449-13.656 7.501-21.374-1.63-6.455-6.734-11.736-12.842-14.385-6.108-2.65-13.094-2.847-19.597-1.417"/>
  <path stroke="#242430" stroke-linecap="round" stroke-linejoin="round" stroke-miterlimit="10" stroke-width="3.685" d="M81.462 23.163a150.387 150.387 0 0 1-18.466 9.08 193.613 193.613 0 0 0 17.886 1.525c.003 1.288-1.156 2.244-2.24 2.938a36.007 36.007 0 0 1-9.1 4.166c-1.112.332-2.317.656-3.057 1.55m4.647-16.859c-.289-3.872.111-3.901.62-7.75m.421 22.647a21.164 21.164 0 0 1-.228 9.792"/>
  <path fill="#FF7A64" stroke="#FF7A64" stroke-linecap="round" stroke-linejoin="round" stroke-miterlimit="10" stroke-width="2.999" d="M65.862 41.917c-.73 19.528.55 42.686 3.379 62.022l137.544-2.719c1.599-8.748 2.158-17.649 2.713-26.525l2.2-35.142c-18.943 3.944-38.537 1.214-57.878.64-27.049-.8-60.933 3.128-87.958 1.724z"/>
  <path fill="#FFF06E" d="M139.279 52.25c-3.039-1.808-6.506-3.446-9.985-2.813-4.425.805-7.398 5.006-9.117 9.162a37.8 37.8 0 0 0-2.86 14.177c-.041 6.763 2.139 14.051 7.69 17.915 2.7 1.88 5.969 2.789 9.232 3.208 7.896 1.013 16.326-.864 22.421-5.984 6.095-5.12 9.448-13.656 7.501-21.374-1.629-6.455-6.734-11.736-12.842-14.385-6.108-2.649-13.094-2.847-19.597-1.417"/>
  <path stroke="#FFF06E" stroke-linecap="round" stroke-linejoin="round" stroke-miterlimit="10" stroke-width="2.999" d="M139.279 52.25c-3.039-1.808-6.506-3.446-9.985-2.813-4.425.805-7.398 5.006-9.117 9.162a37.8 37.8 0 0 0-2.86 14.177c-.041 6.763 2.139 14.051 7.69 17.915 2.7 1.88 5.969 2.789 9.232 3.208 7.896 1.013 16.326-.864 22.421-5.984 6.095-5.12 9.448-13.656 7.501-21.374-1.629-6.455-6.734-11.736-12.842-14.385-6.108-2.649-13.094-2.847-19.597-1.417"/>
  <path stroke="#242430" stroke-linecap="round" stroke-linejoin="round" stroke-miterlimit="10" stroke-width="2.999" d="M145.118 60.715a150.387 150.387 0 0 1-18.466 9.079 193.642 193.642 0 0 0 17.886 1.526c.003 1.288-1.156 2.244-2.241 2.938a36.007 36.007 0 0 1-9.099 4.166c-1.112.332-2.317.656-3.057 1.55m4.651-16.859c-.289-3.872.111-3.9.62-7.75m.422 22.648a21.151 21.151 0 0 1-.229 9.791"/>
  <path fill="#FFF06E" stroke="#FFF06E" stroke-linecap="round" stroke-linejoin="round" stroke-miterlimit="10" stroke-width="2.999" d="M76.227 97.012l10.685-.409-2.7-10.068c-.997 3.523-5.786 7.55-7.985 10.477z"/>
  <path fill="#FF7A64" stroke="#FF7A64" stroke-linecap="round" stroke-linejoin="round" stroke-miterlimit="10" stroke-width="2.999" d="M10 59.477l10.685-.409L17.986 49c-.998 3.523-5.787 7.55-7.986 10.477z"/>
</svg>
