<svg xmlns="http://www.w3.org/2000/svg" width="280" height="144" fill="none">
  <path stroke="#FF7A64" stroke-linecap="round" stroke-linejoin="round" stroke-miterlimit="10" stroke-width="3" d="M25.013 61.362c-.577 1.965-.113 4.657-1.001 7.512 3.933.463 9.02.877 12.954 1.34.689.082-.635.31 0 0 .567-.276.625-1.413.887-1.88.859-1.523.562-2.998 1.42-4.521"/>
  <path stroke="#FF7A64" stroke-linecap="round" stroke-linejoin="round" stroke-miterlimit="10" stroke-width="3" d="M39.234 63.921c3.204.137 10.396.59 13.878-.71.289 2.166.808 4.365 1.66 6.381 4.424-.868 8.818-2.457 13.243-3.326a43.405 43.405 0 0 1-1.374-6.5c-.047-.353-.089-.718.006-1.062.116-.429.426-.773.72-1.108 2.455-2.806 4.406-5.406 5.257-9.024.85-3.618.195-7.38-1.084-10.872-6.103-16.652-21.903-16.598-26.82-16.263 0 0-10.98 1.056-15.654 4.193"/>
  <path stroke="#FF7A64" stroke-linecap="round" stroke-linejoin="round" stroke-miterlimit="10" stroke-width="3" d="M55.088 27.882c-1.753-.977-4.434-1.104-6.193-1.113-1.582-.008-3.184.083-4.739.368m24.809 11.662c.596.475 1.45.638 2.242.763 1.29.205 2.6.379 3.83.262 1.236-.114 2.4-.55 2.953-1.359.427-.624.465-1.409.315-2.179-.13-.681-2.535 1.962.293 2.454 1.082.19 2.261.425 3.808-.135M20.342 30.53c-.82-.282-1.754.011-2.44.54-.687.53-1.175 1.265-1.65 1.987l-.895 1.356c-.908 1.379-2.052 2.897-3.708 3.015-1.536.108-8.665.918-8.907 1.205-1.49 1.76-.29 2.794-.202 3.078.518 1.615-.776 3.37-.259 4.983.23.722.822 1.498 1.53 1.782.414.164 1.78.556 2.216.468 1.055-.218 4.613 1.013 10.439-2.76m-.286-6.655c.418-.764 1.41-1.162 2.245-.903"/>
  <path stroke="#FF7A64" stroke-linecap="round" stroke-linejoin="round" stroke-miterlimit="10" stroke-width="3" d="M24.697 24.787c-.275-1.317-1.412-2.305-2.638-2.876-1.228-.57-2.58-.817-3.858-1.263-2.03-.707-3.716-1.874-5.162-3.454.694 1.296.522 2.894 1.091 4.25.435 1.032 1.263 1.844 2.07 2.624 1.304 1.264 2.61 2.527 3.913 3.788.43.417.864.837 1.19 1.335.359.552.578 1.179.74 1.812.266 1.047.387 2.13.353 3.206m7.266-9.831c.112-1.34-.696-2.608-1.71-3.498-1.016-.892-2.24-1.508-3.34-2.294-1.746-1.247-4.291-1.838-4.132-.378.027.25.078.498.146.739M10.119 50.97c-1.26.171-.413 1.937.815 2.272 1.23.336 2.532.293 3.79.093.235-.037.476-.078.701-.009.251.073.444.271.623.462 1.586 1.682.012 5.224 7.57 8.78m180.703-3.779c-.741 2.526-.145 5.987-1.286 9.657 5.049.596 11.581 1.128 16.631 1.724.884.105-.816.397 0 0 .728-.355.802-1.817 1.139-2.417 1.102-1.958.721-3.855 1.822-5.814"/>
  <path stroke="#FF7A64" stroke-linecap="round" stroke-linejoin="round" stroke-miterlimit="10" stroke-width="3" d="M222.576 62.078c4.115.177 13.347.758 17.818-.914.37 2.786 1.036 5.614 2.13 8.206 5.68-1.117 11.321-3.16 17.002-4.276a55.956 55.956 0 0 1-1.764-8.358c-.06-.454-.114-.923.007-1.366.149-.55.548-.994.924-1.424 3.153-3.608 5.657-6.95 6.75-11.602 1.091-4.653.251-9.49-1.391-13.979-7.836-21.41-28.12-21.34-34.433-20.91 0 0-14.094 1.358-20.096 5.391"/>
  <path stroke="#FF7A64" stroke-linecap="round" stroke-linejoin="round" stroke-miterlimit="10" stroke-width="3" d="M242.933 15.742c-2.251-1.257-5.693-1.42-7.95-1.431-2.032-.01-4.088.106-6.085.472m31.852 14.995c.766.611 1.861.82 2.878.982 1.656.262 3.337.486 4.917.336 1.587-.146 3.081-.707 3.792-1.747.548-.802.597-1.811.404-2.801-.168-.877-3.254 2.522.376 3.155 1.39.243 2.903.546 4.889-.174m-79.685-10.381c-1.052-.364-2.252.014-3.132.695-.882.679-1.509 1.625-2.119 2.553l-1.149 1.744c-1.166 1.772-2.634 3.725-4.76 3.876-1.972.138-11.124 1.18-11.435 1.549-1.912 2.263-.373 3.592-.259 3.958.664 2.076-.997 4.334-.333 6.407.295.928 1.055 1.926 1.965 2.29.531.212 2.284.715 2.844.602 1.355-.28 5.922 1.303 13.402-3.548m-.365-8.557c.537-.982 1.81-1.493 2.883-1.16"/>
  <path stroke="#FF7A64" stroke-linecap="round" stroke-linejoin="round" stroke-miterlimit="10" stroke-width="3" d="M203.915 11.763c-.353-1.693-1.812-2.964-3.386-3.698-1.577-.734-3.312-1.05-4.953-1.624-2.605-.909-4.771-2.41-6.627-4.441.892 1.666.67 3.721 1.401 5.464.558 1.327 1.621 2.371 2.657 3.375a8117.56 8117.56 0 0 0 5.024 4.87c.552.535 1.108 1.076 1.528 1.716.46.709.742 1.516.95 2.33.341 1.345.496 2.738.452 4.121m9.325-12.64c.143-1.723-.894-3.352-2.195-4.497-1.304-1.147-2.877-1.939-4.289-2.95-2.241-1.603-5.509-2.363-5.305-.486.036.323.1.64.188.95m-13.487 41.173c-1.618.22-.531 2.49 1.046 2.921 1.579.432 3.252.378 4.867.12.301-.047.611-.1.899-.01.323.093.571.347.8.593 2.036 2.163.016 6.717 9.717 11.288m-100.339 66.585c-.959 3.288-.188 7.792-1.665 12.57 6.538.775 14.995 1.468 21.532 2.244 1.145.136-1.055.516 0 0 .943-.463 1.039-2.366 1.475-3.146 1.428-2.549.934-5.018 2.359-7.567"/>
  <path stroke="#FF7A64" stroke-linecap="round" stroke-linejoin="round" stroke-miterlimit="10" stroke-width="3" d="M125.829 131.205c5.327.229 17.281.986 23.069-1.19.479 3.626 1.342 7.307 2.758 10.68 7.354-1.454 14.657-4.112 22.013-5.566a73.09 73.09 0 0 1-2.284-10.878c-.078-.591-.148-1.201.009-1.778.193-.717.709-1.293 1.196-1.854 4.082-4.696 7.325-9.046 8.74-15.101 1.413-6.055.324-12.35-1.801-18.194-10.146-27.866-36.408-27.775-44.581-27.215 0 0-18.249 1.767-26.018 7.016"/>
  <path stroke="#FF7A64" stroke-linecap="round" stroke-linejoin="round" stroke-miterlimit="10" stroke-width="3" d="M152.182 70.894c-2.913-1.636-7.371-1.848-10.293-1.863-2.631-.013-5.292.138-7.877.615m41.234 19.518c.992.795 2.41 1.068 3.726 1.277 2.144.342 4.321.633 6.366.439 2.055-.191 3.989-.921 4.91-2.275.709-1.044.773-2.358.523-3.646-.217-1.14-4.213 3.282.487 4.107 1.799.316 3.759.711 6.329-.226M94.425 75.327c-1.362-.474-2.915.018-4.055.904-1.143.884-1.954 2.116-2.743 3.324l-1.488 2.269c-1.51 2.307-3.41 4.849-6.164 5.045-2.552.18-14.401 1.536-14.804 2.016-2.476 2.945-.484 4.676-.336 5.152.86 2.702-1.29 5.64-.43 8.339.38 1.208 1.365 2.507 2.543 2.982.687.275 2.957.93 3.683.782 1.753-.364 7.667 1.696 17.351-4.617m-.474-11.139c.694-1.277 2.342-1.943 3.732-1.51"/>
  <path stroke="#FF7A64" stroke-linecap="round" stroke-linejoin="round" stroke-miterlimit="10" stroke-width="3" d="M101.662 65.715c-.457-2.204-2.346-3.858-4.384-4.813-2.042-.955-4.288-1.368-6.414-2.114-3.372-1.182-6.176-3.137-8.579-5.78 1.154 2.169.868 4.843 1.814 7.112.722 1.727 2.098 3.086 3.44 4.392 2.168 2.114 4.337 4.228 6.505 6.339.714.697 1.434 1.4 1.978 2.234.596.922.96 1.972 1.23 3.031.441 1.752.642 3.564.586 5.366m12.077-16.452c.186-2.243-1.158-4.363-2.842-5.853-1.688-1.494-3.725-2.524-5.553-3.84-2.9-2.086-7.132-3.076-6.868-.632.046.42.13.833.243 1.237M77.434 109.53c-2.095.288-.688 3.242 1.354 3.803 2.044.562 4.21.491 6.3.156.39-.062.792-.131 1.166-.014.417.122.738.453 1.035.773 2.636 2.815.02 8.742 12.58 14.692"/>
</svg>
